<?xml version="1.0" encoding="UTF-8"?>
<svg id="Layer_2" data-name="Layer 2" xmlns="http://www.w3.org/2000/svg" viewBox="0 0 430.33 448.77">
  <defs>
    <style>
      .cls-1 {
        fill: #f17847;
      }
    </style>
  </defs>
  <g id="Layer_2-2" data-name="Layer 2">
    <path class="cls-1" d="M199.1,448.77c-.29-.37-.76-.38-1.15-.53-2.14-.79-3.31-2.53-3.48-4.77-.21-2.75.86-5.07,2.22-7.27,2.73-4.43,5.61-8.76,8.37-13.16,4.14-6.58,8.28-13.16,12.31-19.8,1.93-3.18,3.74-6.44,5.35-9.8,1.03-2.15,1.95-4.35,2.89-6.54,1.13-2.63,2.34-5.23,3.6-7.8,1.91-3.91,3.47-7.95,5-12.01,1.77-4.69,3.2-9.49,4.73-14.25,2.1-6.53,4.13-13.09,6.16-19.65,2.39-7.7,4.94-15.34,8.01-22.8,1.2-2.91,2.57-5.75,3.84-8.63,1.23-2.8,2.55-5.56,4.01-8.24,4.04-7.43,7.97-14.91,11.65-22.53,3.38-7,6.53-14.11,9.36-21.36,1.78-4.54,3.92-8.9,6.3-13.15s5.05-8.32,7.79-12.34c1.75-2.56,3.64-5.02,5.33-7.61,2.56-3.91,4.95-7.94,6.98-12.16,2.84-5.91,6.17-11.52,9.78-16.98,2.71-4.1,5.39-8.21,8.13-12.3,3.56-5.31,7.4-10.4,11.22-15.53,2.62-3.51,5.49-6.84,7.78-10.6,2.03-3.34,3.99-6.72,6.02-10.07,2.57-4.24,5.32-8.37,8.12-12.47,2.77-4.06,5.89-7.86,8.58-11.97,2.61-4,4.91-8.18,6.84-12.56.71-1.61,1.54-3.17,1.91-4.92.33-1.53.25-3.05.11-4.56-.06-.66-.16-1.32-.21-1.98-.04-.52-.34-.66-.79-.41-.33.18-.71.36-.95.63-1.49,1.68-3.36,2.94-4.82,4.68-3.31,3.96-6.38,8.08-9.15,12.42-1.67,2.62-3.37,5.21-5.25,7.67-1.19,1.55-2.44,3.05-3.74,4.51-1.11,1.25-2.2,2.52-3.43,3.64-4.17,3.78-8.37,7.48-13.38,10.2-4.57,2.48-8.8,5.5-12.82,8.82-2.76,2.28-5.42,4.66-8.13,6.98-2.27,1.95-4.67,3.77-7.12,5.51-6.96,4.95-14.35,9.26-21.38,14.1-5.85,4.03-11.65,8.13-17.62,12-6.65,4.3-13.37,8.48-20.17,12.53-7.41,4.42-14.78,8.92-22.2,13.33-2.75,1.63-5.55,3.17-8.39,4.65-5.3,2.76-10.67,5.37-15.95,8.16-6.93,3.66-14.04,6.96-20.96,10.64-4.6,2.45-9.3,4.68-14,6.9-5.83,2.75-11.88,4.94-18.01,6.93-6.07,1.97-12.22,3.67-18.39,5.31-8.78,2.34-17.59,4.59-26.35,7.04-5.97,1.67-11.79,3.81-17.59,6.01-4.73,1.79-9.47,3.53-14.19,5.33-5.57,2.11-11.13,4.27-16.7,6.38-3.97,1.5-7.93,3.03-11.74,4.91-2.83,1.39-5.38,3.24-7.87,5.17-3.31,2.57-6.42,5.4-9.95,7.68-1.95,1.26-4,1.1-5.48-.43-1.07-1.11-1.4-2.44-1.04-3.96.41-1.71,1.42-3.12,2.22-4.63,1.22-2.32,2.54-4.59,3.83-6.87,2.23-3.95,4.56-7.85,7.58-11.25,3.29-3.7,5.75-7.95,8.48-12.03,3.55-5.31,7.05-10.67,10.71-15.9,3.88-5.54,7.85-11.02,11.98-16.38,2.27-2.94,4.71-5.75,7.09-8.6,2.38-2.86,4.91-5.58,7.42-8.33,4.8-5.27,9.95-10.19,15.02-15.19,2.92-2.88,6-5.6,9.11-8.26,3.66-3.12,7.36-6.19,11.09-9.23,7.39-6.03,15.06-11.68,22.71-17.35,7.89-5.85,16.13-11.21,24.57-16.26,4.83-2.89,9.69-5.73,14.58-8.52,6.72-3.83,13.57-7.44,20.58-10.71,7.09-3.3,14.32-6.27,21.68-8.94,10-3.63,20.2-6.59,30.55-8.98,4.67-1.08,9.41-1.91,14.14-2.66,2.67-.42,5.37-.71,8.06-.98,3.17-.32,6.34-.61,9.52-.84,3.28-.24,6.56-.4,9.83-.61,2.05-.13,4.09-.2,6.14-.21,4.38,0,8.49,1.01,12.25,3.33.87.54,1.87.77,2.85.9.94.12,1.88.32,2.83.34,3.24.07,6.48.02,9.73.27,2.13.17,4.26.32,6.39.55,1.84.2,3.69.37,5.52.62,2.16.3,4.32.65,6.47,1.02,2.01.34,4.01.81,6.08.75,1.03-.03,1.85-.33,2.54-1.09,1.15-1.28,2.39-2.48,3.44-3.83.97-1.24,2.1-2.34,3.11-3.54,2.13-2.5,4.49-4.81,6.62-7.32,1.17-1.38,2.56-2.57,3.59-4.08.24-.36.5-.7.62-1.12.31-1.15.04-1.62-1.09-2.04-3.23-1.19-6.62-1.74-9.95-2.57-6.46-1.6-12.93-3.18-19.41-4.74-6.89-1.65-13.79-3.28-20.69-4.89-2.25-.52-4.51-.43-6.81-.21-2.85.27-5.66.7-8.46,1.25-5.82,1.14-11.45,2.88-16.81,5.46-5.25,2.53-10.49,5.07-15.8,7.45-7.49,3.35-15.1,6.4-22.94,8.86-6.36,1.99-12.76,3.87-19.26,5.35-5.14,1.17-10.3,2.25-15.52,3.06-3.1.48-6.2.99-9.31,1.3-2.55.25-5.13.42-7.71.38-2.47-.04-4.93.28-7.4.48-1.9.16-3.78.38-5.67.61-3.77.47-7.52,1.1-11.24,1.86-8.35,1.69-16.61,3.75-24.87,5.78-3.97.97-7.96,1.87-11.98,2.63-3.4.65-6.83,1.19-10.28,1.56-2.93.32-5.86.64-8.79.89-1.96.17-3.91.22-5.85.2-1.3-.02-2.56.37-3.84.28-3.05-.2-6.11-.12-9.15-.33-3.41-.24-6.81-.53-10.21-1.02-4.09-.59-8.18-1.15-12.27-1.74-3.24-.46-6.52-.73-9.75-1.23-2.96-.46-5.95-.63-8.91-1.06-1.31-.19-2.66-.18-3.98-.28-6.53-.46-13.08-.5-19.62-.28-4.18.14-8.31.96-12.29,2.34-4.19,1.45-8.39,2.87-12.59,4.3-.36.12-.72.27-1.09.36-1.47.37-3-.19-3.88-1.49-.8-1.19-.77-2.42.02-3.62.42-.63.84-1.27,1.4-1.81.9-.86,1.77-1.75,2.63-2.64,3.33-3.42,6.75-6.77,9.96-10.3,3.84-4.21,7.9-8.18,11.98-12.14,2.46-2.38,5.05-4.63,7.74-6.78,2.64-2.11,5.28-4.23,7.8-6.49,2.48-2.23,5.06-4.34,7.59-6.52,1.66-1.43,3.31-2.88,4.94-4.34.75-.67,1.55-1.27,2.37-1.83,3.51-2.38,7.04-4.74,10.54-7.15,7.24-4.96,14.44-9.97,21.78-14.8,2.91-1.91,5.96-3.61,9.01-5.28,7.79-4.27,15.64-8.43,23.58-12.4,6.54-3.26,13.17-6.32,19.74-9.54,3.64-1.78,7.52-3,11.43-4.09,4.4-1.23,8.88-2.11,13.39-2.8,2.67-.41,5.36-.73,8.07-.97,2.46-.22,4.93-.4,7.4-.58,7.5-.54,15-.26,22.49-.17,3.07.04,6.16.34,9.24.71,2.21.27,4.45.44,6.67.67,2.17.22,4.34.54,6.49.88,3.23.52,6.47,1.06,9.68,1.69,4.95.97,9.84,2.19,14.68,3.63,4.44,1.32,8.77,2.92,13.03,4.73,5.91,2.51,11.45,5.67,16.49,9.67,2.47,1.96,4.92,3.96,7.03,6.29,1.99,2.2,4.09,4.28,6.18,6.37,3.04,3.03,6.31,5.81,9.62,8.54,2.13,1.76,4.24,3.55,6.53,5.1,2.1,1.42,4.32,2.64,6.56,3.8,4.41,2.28,8.87,4.48,13.38,6.56,2.21,1.02,4.42,2.03,6.64,3.03,1.4.63,2.89.97,4.38,1.29,5.27,1.12,10.41,2.68,15.59,4.15,5.27,1.49,10.42,3.4,15.7,4.88,1.92.54,3.56.25,5.01-1.13,1.83-1.75,3.64-3.51,5.52-5.21,2.05-1.85,4.19-3.61,6.24-5.45,2.27-2.04,4.67-3.92,7.02-5.86,3.19-2.64,6.77-4.63,10.5-6.36,4.2-1.95,8.56-3.51,12.97-4.92,1.63-.52,3.29-.96,5.03-.95,2.67.02,4.73,1.55,5.53,4.1.03.08.12.14.19.2v2.3c-.06.07-.17.13-.19.21-.53,2.5-2.23,3.75-4.55,4.41-2.98.85-5.94,1.73-8.9,2.65-6.57,2.05-11.94,6.08-17.1,10.42-1.79,1.5-3.54,3.04-5.34,4.53-2.06,1.69-3.41,3.71-3.23,6.51.03.42-.05.85-.1,1.28-.15,1.46-.49,2.91-.46,4.39.06,2.76-.1,5.52.23,8.29.32,2.69.66,5.38,1.01,8.06.38,2.97.77,5.94.99,8.92.22,2.95.51,5.88,1,8.78.9,5.35,2.21,10.62,3.86,15.79.84,2.63,1.66,5.27,2.37,7.94,2.1,7.86,3.73,15.82,5.26,23.81.65,3.41,1.55,6.76,2.01,10.21.39,2.83.56,5.68.73,8.52.16,2.66-.04,5.33-.21,8-.11,1.61-.22,3.24-.41,4.83-.31,2.56-.26,5.14-.41,7.7-.23,3.94-.13,7.9-.6,11.84-.37,3.11-.75,6.23-1.29,9.31-.65,3.69-1.11,7.42-1.9,11.09-1.04,4.83-1.95,9.69-3.07,14.51-1.32,5.67-3.4,11.11-5.51,16.54-1.3,3.33-2.88,6.55-3.96,9.97-1.6,5.06-3.7,9.92-5.97,14.7-2.9,6.08-6.08,12.02-8.93,18.13-1.63,3.5-3.4,6.95-5.28,10.34-1.62,2.92-3.22,5.85-5.03,8.66-2.73,4.25-5.67,8.37-8.61,12.48-2.11,2.94-4.32,5.81-6.58,8.64-2.4,3.02-4.85,6-7.37,8.92-2.18,2.53-4.47,4.95-6.7,7.43-1.3,1.46-2.81,2.72-4.24,4.06-2.61,2.45-5.34,4.76-8.23,6.86-5.55,4.04-11.08,8.09-16.47,12.34-4.43,3.49-9.07,6.64-13.92,9.5-5.01,2.95-9.97,6.01-14.95,9-3.07,1.84-6.16,3.66-9.42,5.15-5.39,2.46-10.68,5.13-15.86,7.99-4.93,2.73-9.9,5.37-14.91,7.95-4.03,2.08-8.17,3.93-12.26,5.89-3.57,1.71-7.25,3.17-10.87,4.78-2.66,1.18-5.3,2.4-7.66,4.16-1.03.77-2.03,1.57-2.98,2.45-1.15,1.06-2.67,1.39-4.07,1.97h-1.15ZM383.49,118.21c-1,.65-1.65,1.29-2.13,2.14-1.27,2.25-2.39,4.57-3.44,6.93-2.69,6.07-5.35,12.15-7.87,18.29-2.21,5.4-3.82,11-5.72,16.51-5.52,15.97-10.32,32.18-16.01,48.1-3.2,8.95-6.62,17.81-10,26.69-3,7.85-6.03,15.69-8.93,23.57-3.68,10.04-7.23,20.13-11.2,30.06-2.98,7.45-5.98,14.9-9.63,22.05-4.29,8.41-9.73,16.1-15.22,23.74-3.71,5.16-7.68,10.12-11.83,14.94-3.5,4.07-7.24,7.91-11.63,11.02-5.35,3.79-9.93,8.36-14.06,13.41-4.99,6.1-9.96,12.21-14.94,18.32-2.75,3.37-5.46,6.76-7.65,10.54-.84,1.45-1.64,2.92-2.09,4.54-.2.72.1,1.21.65,1.58.52.35.99.18,1.43-.2,1.27-1.09,2.55-2.17,3.66-3.43,3.27-3.74,6.55-7.47,9.79-11.23,5.8-6.73,11.73-13.35,17.95-19.7,2.38-2.43,4.83-4.76,7.77-6.52.65-.39,1.26-.86,1.88-1.32,4.47-3.31,8.51-7.08,12.33-11.11,3.42-3.61,6.68-7.35,9.82-11.2,4.05-4.96,7.82-10.14,11.46-15.4,3.07-4.44,6.13-8.89,8.73-13.63,3.76-6.83,6.9-13.96,9.81-21.18,2.78-6.91,5.34-13.9,7.86-20.91,3.92-10.87,7.86-21.73,11.79-32.6,2.13-5.88,4.26-11.76,6.35-17.66,2.36-6.66,4.71-13.32,6.56-20.15.83-3.08,1.48-6.23,2.47-9.26,3.46-10.63,6.31-21.42,8.9-32.28,1.75-7.33,3.53-14.66,6-21.79,2.17-6.27,4.31-12.55,6.47-18.83.42-1.22.73-2.46.66-4.03ZM69.84,250.2c.32.04.63-.1.94-.21,1.54-.55,2.96-1.31,4.24-2.35,3.32-2.73,6.64-5.46,9.99-8.16,5.16-4.17,10.32-8.35,15.53-12.47,5.09-4.04,10.16-8.1,15.58-11.7,5.06-3.36,10.35-6.32,15.69-9.22,11.71-6.37,23.48-12.61,35.32-18.73,9.46-4.89,19.2-9.24,28.63-14.2,7.36-3.87,14.81-7.54,22.42-10.89,7.39-3.25,14.86-6.29,22.33-9.34,11.27-4.6,22.55-9.18,33.81-13.79,6.1-2.5,12.17-5.06,18.13-7.86,7.32-3.44,14.01-8.02,21.32-11.48.99-.47,1.87-1.15,2.8-1.73.26-.16.46-.35.36-.69-.1-.32-.36-.43-.66-.46-.64-.07-1.22.16-1.8.38-4.06,1.57-8.04,3.28-11.94,5.22-2.05,1.02-4.11,2.04-6.23,2.9-7.21,2.93-14.49,5.68-21.81,8.31-14.15,5.09-28.32,10.1-42.48,15.15-4.85,1.73-9.72,3.43-14.53,5.28-7.94,3.05-15.59,6.77-23.23,10.5-6.14,3-12.22,6.11-18.37,9.09-7.61,3.68-15.19,7.43-22.65,11.42-11.41,6.12-22.5,12.79-33.87,18.98-4.34,2.36-8.34,5.21-12.32,8.11-6.53,4.76-12.73,9.92-18.94,15.08-5.93,4.92-11.57,10.14-16.92,15.68-1.23,1.28-2.23,2.75-2.96,4.37-.62,1.39.2,2.76,1.63,2.81ZM289.55,52.89c.48,0,.96,0,1.43,0,.69,0,1.06-.45,1.25-1.01.16-.49-.28-.78-.62-1.03-1.07-.77-2.28-1.23-3.57-1.39-3.47-.41-6.97-.35-10.45-.21-3.67.15-7.34.37-10.99.72-2.99.29-6,.38-8.99.69-3.71.37-7.43.59-11.14.71-4.34.13-8.68.36-13.02.15-4.39-.21-8.79-.09-13.18-.27-6.2-.25-12.41-.39-18.62-.6-4.11-.14-8.23-.14-12.33-.01-4.67.15-9.35.32-14.01.72-2.66.23-5.33.44-7.98.72-4.03.42-8.04,1-12.05,1.6-6.46.98-12.87,2.21-19.24,3.67-8,1.84-15.91,4-23.78,6.31-9.03,2.65-17.94,5.63-26.68,9.11-8.87,3.53-17.74,7.06-26.61,10.6-.98.39-1.92.88-2.63,1.69-1.07,1.23-.76,2.84.68,3.61.34.18.7.27,1.08.36,2.06.48,4.1.19,6.12-.14,5.77-.94,11.32-2.67,16.75-4.81,4.44-1.76,8.81-3.68,13.3-5.32,8.79-3.21,17.7-6.04,26.71-8.57,13.83-3.89,27.79-7.16,42.04-9.11,4.82-.66,9.66-1.19,14.5-1.59,3.66-.3,7.34-.44,11.01-.57,3.82-.14,7.64-.14,11.46-.27,7.74-.26,15.48-.06,23.22-.27,6.06-.17,12.12-.41,18.18-.72,2.48-.13,4.95-.32,7.42-.6,3.74-.43,7.49-.8,11.22-1.31,4.16-.56,8.3-1.25,12.44-1.92,4.15-.67,8.31-1.16,12.52-1.28,1.54-.04,3.05.18,4.57.32Z"/>
  </g>
</svg>